# xmcd
#
# Track frame offsets: 
#        150
#        62754
#        89361
#        98382
#        124192
#        159374
#        175895
#        207710
#        233994
#
# Disc length: 3362 seconds
#
# Revision: 0
# Processed by: cddbd v1.4PL0 Copyright (c) Steve Scherf et al.
# Submitted via: ExactAudioCopy v0.90b4
#
DISCID=730d2009
DTITLE=Van Morrison - Brighton 1990
DYEAR=1990
DGENRE=Celtic
TTITLE0=Summertime In England
TTITLE1=Vanlose Stairway
TTITLE2=Star Of The County Down
TTITLE3=Northern Muse (Solid Ground) > Auld Lang Syne > No Prima Donna
TTITLE4=In The Garden
TTITLE5=Have I Told You Lately
TTITLE6=Caravan
TTITLE7=Whenever God Shines His Light
TTITLE8=Buona Sera
EXTD=
EXTT0=
EXTT1=
EXTT2=
EXTT3=
EXTT4=
EXTT5=
EXTT6=
EXTT7=
EXTT8=
PLAYORDER=
